<svg width="112" height="31" viewBox="0 0 112 31" fill="none" xmlns="http://www.w3.org/2000/svg">
<path d="M38.7 15.8506C38.7 14.4773 39.0067 13.2506 39.62 12.1706C40.2467 11.0773 41.0933 10.2306 42.16 9.63059C43.24 9.01725 44.4467 8.71059 45.78 8.71059C47.34 8.71059 48.7067 9.11059 49.88 9.91059C51.0533 10.7106 51.8733 11.8173 52.34 13.2306H49.12C48.8 12.5639 48.3467 12.0639 47.76 11.7306C47.1867 11.3973 46.52 11.2306 45.76 11.2306C44.9467 11.2306 44.22 11.4239 43.58 11.8106C42.9533 12.1839 42.46 12.7173 42.1 13.4106C41.7533 14.1039 41.58 14.9173 41.58 15.8506C41.58 16.7706 41.7533 17.5839 42.1 18.2906C42.46 18.9839 42.9533 19.5239 43.58 19.9106C44.22 20.2839 44.9467 20.4706 45.76 20.4706C46.52 20.4706 47.1867 20.3039 47.76 19.9706C48.3467 19.6239 48.8 19.1173 49.12 18.4506H52.34C51.8733 19.8773 51.0533 20.9906 49.88 21.7906C48.72 22.5773 47.3533 22.9706 45.78 22.9706C44.4467 22.9706 43.24 22.6706 42.16 22.0706C41.0933 21.4573 40.2467 20.6106 39.62 19.5306C39.0067 18.4506 38.7 17.2239 38.7 15.8506ZM54.0116 17.2706C54.0116 16.1506 54.2316 15.1573 54.6716 14.2906C55.1249 13.4239 55.7316 12.7573 56.4916 12.2906C57.2649 11.8239 58.1249 11.5906 59.0716 11.5906C59.8982 11.5906 60.6182 11.7573 61.2316 12.0906C61.8582 12.4239 62.3582 12.8439 62.7316 13.3506V11.7706H65.5516V22.8506H62.7316V21.2306C62.3716 21.7506 61.8716 22.1839 61.2316 22.5306C60.6049 22.8639 59.8782 23.0306 59.0516 23.0306C58.1182 23.0306 57.2649 22.7906 56.4916 22.3106C55.7316 21.8306 55.1249 21.1573 54.6716 20.2906C54.2316 19.4106 54.0116 18.4039 54.0116 17.2706ZM62.7316 17.3106C62.7316 16.6306 62.5982 16.0506 62.3316 15.5706C62.0649 15.0773 61.7049 14.7039 61.2516 14.4506C60.7982 14.1839 60.3116 14.0506 59.7916 14.0506C59.2716 14.0506 58.7916 14.1773 58.3516 14.4306C57.9116 14.6839 57.5516 15.0573 57.2716 15.5506C57.0049 16.0306 56.8716 16.6039 56.8716 17.2706C56.8716 17.9373 57.0049 18.5239 57.2716 19.0306C57.5516 19.5239 57.9116 19.9039 58.3516 20.1706C58.8049 20.4373 59.2849 20.5706 59.7916 20.5706C60.3116 20.5706 60.7982 20.4439 61.2516 20.1906C61.7049 19.9239 62.0649 19.5506 62.3316 19.0706C62.5982 18.5773 62.7316 17.9906 62.7316 17.3106ZM72.5263 23.0306C71.6196 23.0306 70.8063 22.8706 70.0863 22.5506C69.3663 22.2173 68.7929 21.7706 68.3663 21.2106C67.9529 20.6506 67.7263 20.0306 67.6863 19.3506H70.5063C70.5596 19.7773 70.7663 20.1306 71.1263 20.4106C71.4996 20.6906 71.9596 20.8306 72.5063 20.8306C73.0396 20.8306 73.4529 20.7239 73.7463 20.5106C74.0529 20.2973 74.2063 20.0239 74.2063 19.6906C74.2063 19.3306 74.0196 19.0639 73.6463 18.8906C73.2863 18.7039 72.7063 18.5039 71.9062 18.2906C71.0796 18.0906 70.3996 17.8839 69.8663 17.6706C69.3463 17.4573 68.8929 17.1306 68.5063 16.6906C68.1329 16.2506 67.9463 15.6573 67.9463 14.9106C67.9463 14.2973 68.1196 13.7373 68.4663 13.2306C68.8263 12.7239 69.3329 12.3239 69.9863 12.0306C70.6529 11.7373 71.4329 11.5906 72.3263 11.5906C73.6463 11.5906 74.6996 11.9239 75.4863 12.5906C76.2729 13.2439 76.7063 14.1306 76.7863 15.2506H74.1063C74.0663 14.8106 73.8796 14.4639 73.5463 14.2106C73.2263 13.9439 72.7929 13.8106 72.2463 13.8106C71.7396 13.8106 71.3463 13.9039 71.0663 14.0906C70.7996 14.2773 70.6663 14.5373 70.6663 14.8706C70.6663 15.2439 70.8529 15.5306 71.2263 15.7306C71.5996 15.9173 72.1796 16.1106 72.9663 16.3106C73.7663 16.5106 74.4263 16.7173 74.9463 16.9306C75.4663 17.1439 75.9129 17.4773 76.2863 17.9306C76.6729 18.3706 76.8729 18.9573 76.8863 19.6906C76.8863 20.3306 76.7063 20.9039 76.3463 21.4106C75.9996 21.9173 75.4929 22.3173 74.8263 22.6106C74.1729 22.8906 73.4063 23.0306 72.5263 23.0306ZM85.4247 11.6106C86.2647 11.6106 87.0114 11.7973 87.6647 12.1706C88.318 12.5306 88.8247 13.0706 89.1847 13.7906C89.558 14.4973 89.7447 15.3506 89.7447 16.3506V22.8506H86.9447V16.7306C86.9447 15.8506 86.7247 15.1773 86.2847 14.7106C85.8447 14.2306 85.2447 13.9906 84.4847 13.9906C83.7114 13.9906 83.098 14.2306 82.6447 14.7106C82.2047 15.1773 81.9847 15.8506 81.9847 16.7306V22.8506H79.1847V8.05059H81.9847V13.1506C82.3447 12.6706 82.8247 12.2973 83.4247 12.0306C84.0247 11.7506 84.6914 11.6106 85.4247 11.6106ZM98.9673 22.8506L95.2073 18.1306V22.8506H92.4073V8.05059H95.2073V16.4706L98.9273 11.7706H102.567L97.6873 17.3306L102.607 22.8506H98.9673ZM106.887 13.4906C107.247 12.9039 107.714 12.4439 108.287 12.1106C108.874 11.7773 109.54 11.6106 110.287 11.6106V14.5506H109.547C108.667 14.5506 108 14.7573 107.547 15.1706C107.107 15.5839 106.887 16.3039 106.887 17.3306V22.8506H104.087V11.7706H106.887V13.4906Z" fill="white"/>
<rect x="2" y="2.19531" width="24.2523" height="24" rx="8" stroke="white" stroke-width="4"/>
<rect x="13.0986" y="3.19531" width="12.1441" height="12" rx="6" stroke="white" stroke-width="4"/>
</svg>
